<svg width="598" height="98" viewBox="0 0 598 98" fill="none" xmlns="http://www.w3.org/2000/svg">
<path d="M480.515 60.699L481.066 60.6378V60.0865C481.035 59.0453 480.545 34.6984 471.052 26.154C468.632 23.9797 465.815 23.0303 462.691 23.3059C450.9 24.3165 443.979 36.4134 444.194 55.6765C444.255 65.9053 447.746 71.724 451.88 75.0928C456.015 78.4922 460.792 79.4415 463.426 79.9622C464.253 80.1459 465.202 80.2072 466.182 80.2072C472.124 80.2072 480.086 77.604 480.454 77.4815L481.005 77.2978L480.852 76.7465C480.852 76.7465 480.147 73.7147 479.627 71.969C479.198 70.2847 478.494 67.1303 478.494 67.1303L478.34 66.5178L477.728 66.6709C477.728 66.6709 465.815 69.519 462.507 68.9372C460.364 68.539 458.373 65.2928 457.454 63.4247C459.445 63.149 464.62 62.4753 468.02 62.1078C471.879 61.8628 480.454 60.699 480.515 60.699ZM468.571 52.2772C467.254 52.3997 464.039 52.6753 461.864 53.0428L456.78 53.9003C456.535 48.1122 456.811 35.1578 460.884 34.6065C461.068 34.5759 461.221 34.5759 461.405 34.5759C462.201 34.5759 462.967 34.8515 463.64 35.4334C467.53 38.7103 468.418 49.6128 468.571 52.2772Z" fill="#1F8299"/>
<path d="M437.243 74.7251C437.243 74.7251 436.906 68.8451 436.722 63.3632C436.63 56.8708 436.569 46.4582 436.722 38.4345C436.814 29.9207 437.09 5.88012 437.09 5.88012V5.42075L436.661 5.29825C436.661 5.29825 434.364 4.56325 431.853 4.28762C429.801 4.04262 426.555 3.24637 426.524 3.24637L425.758 3.06262V3.82825C425.758 3.82825 425.85 18.3139 425.667 24.9595C425.575 28.3589 425.391 31.8195 425.268 33.902C423.492 31.2682 419.511 26.5826 413.325 26.5826H413.202C407.904 26.6745 396.083 33.3201 395.348 52.5526C395.317 53.1345 395.317 53.6857 395.317 54.2064C395.317 69.9476 404.535 76.777 413.386 77.9408C413.815 78.002 414.243 78.0326 414.672 78.0326C420.062 78.0326 424.227 73.6839 426.003 71.387L426.524 76.8382H427.137C427.137 76.8382 430.015 76.532 431.608 76.2564C433.2 75.9807 436.753 75.3682 436.753 75.3682L437.273 75.2764V74.7251H437.243ZM417.673 38.2201C420.613 39.9964 423.37 43.8551 424.105 47.2239C425.023 51.6951 425.146 55.1557 424.533 58.1264C424.074 60.7907 421.593 66.2114 416.785 66.2114H416.602C411.089 65.9357 407.169 58.9226 406.924 52.5526C406.679 46.5807 407.751 39.1389 414.152 37.4239C415.132 37.1482 416.357 37.4239 417.673 38.2201Z" fill="#1F8299"/>
<path d="M293.152 74.7252C293.152 74.7252 292.355 64.8027 292.355 60.3621C292.355 55.9215 292.968 32.5546 292.968 32.3402V31.8196L292.478 31.7277C292.478 31.7277 288.588 30.9927 286.935 30.6558C285.25 30.2271 282.862 29.6758 282.862 29.6758L282.157 29.5227L281.882 33.5958C280.075 31.544 275.848 27.8383 269.08 28.0833C258.484 28.3896 250.246 37.6383 248.072 51.6952C246.877 59.2596 248.378 66.2421 252.267 71.3565C255.483 75.5827 260.168 78.2165 265.405 78.829C266.079 78.9208 266.722 78.9515 267.365 78.9515C275.175 78.9515 280.902 73.6227 283.168 71.1421L283.382 75.5827L283.903 75.644C283.903 75.644 286.812 75.9196 288.497 75.8277C290.548 75.7358 292.57 75.399 292.631 75.3683L293.182 75.2765V74.7252H293.152ZM259.097 50.9602C259.832 45.1721 262.863 38.6796 269.172 37.7915C270.918 37.5158 273.092 38.4346 275.144 40.2721C277.87 42.7527 280.748 47.4077 280.503 53.0121C280.442 55.7071 278.298 62.4446 274.256 66.2115C272.204 68.1409 269.907 69.0596 267.457 68.9371C265.191 68.8146 263.353 67.8958 261.945 66.2421C258.882 62.5365 258.484 55.7071 259.097 50.9602Z" fill="#1F8299"/>
<path d="M586.661 96.3158C583.966 97.112 580.598 97.3877 577.26 97.3877C569.634 97.3877 561.978 95.9789 561.518 95.887L561.028 95.7952V91.0483C561.028 89.1495 560.661 85.3827 560.661 85.352L560.599 84.5864L561.365 84.6783C561.549 84.7089 577.933 87.1895 582.466 84.6783C584.824 83.3614 584.824 80.4827 584.824 78.5839C584.824 77.4508 584.671 75.6439 584.579 74.3577C582.772 76.3177 578.515 79.8089 571.808 78.9208C561.641 77.6039 557.996 67.0077 556.863 62.5364C555.301 56.442 555.026 30.4108 554.995 29.3083V28.6345L555.669 28.6958C555.669 28.6958 559.803 29.0633 561.304 29.1245C562.835 29.2164 566.235 28.9714 566.265 28.9714L566.908 28.9102V29.5533C566.939 29.7983 567.214 51.2664 568.593 58.3714C569.573 63.4245 571.196 66.487 573.401 67.5283C574.932 68.2327 576.77 67.9877 578.944 66.7933C582.741 64.7108 582.282 57.3914 581.853 50.9295C581.761 49.2758 581.669 47.6527 581.639 46.1214C581.363 38.557 580.138 27.1952 580.138 27.0727L580.046 26.3683H580.751C580.751 26.3683 584.089 26.4908 586.386 26.4908C588.683 26.4908 591.868 26.3989 591.868 26.3989H592.511L592.48 27.0114C592.48 27.1952 592.48 31.452 595.941 62.7508C597.135 73.8064 596.523 93.2839 586.661 96.3158Z" fill="#1F8299"/>
<path d="M548.471 71.2337V71.8462H547.859C547.859 71.8462 545.011 71.8462 542.928 71.9381C540.815 72.03 537.538 72.1218 537.538 72.1218H536.864V71.4787C537.232 64.6494 537.324 46.305 534.016 43.2731C533.741 42.9669 533.434 42.875 533.098 42.9056C529.514 43.4569 527.738 48.4794 526.329 52.5219C526.084 53.1956 525.839 53.8694 525.625 54.4819C524.094 58.4019 523.634 71.5706 523.634 71.6931V72.3975L522.899 72.275C522.777 72.2444 520.021 71.7544 518.612 71.3869C518.153 71.295 517.264 71.2031 516.346 71.1112C512.946 70.7437 512.303 70.6519 512.303 69.9169C512.303 69.8862 512.334 69.6719 512.364 69.3044C513.773 55.1556 513.498 45.3862 511.66 43.1506C511.446 42.9056 511.262 42.7525 511.017 42.7525C507.403 42.4156 502.013 51.7869 500.176 55.5537C500.114 56.4725 499.747 62.4444 499.931 64.925C500.084 67.5587 500.543 73.5919 500.543 73.5919V74.1125L500.053 74.235C499.869 74.2656 495.551 75.1231 493.836 75.1231C492.121 75.1231 489.12 75.3681 489.089 75.3681L488.416 75.4294V74.7556C488.416 74.7556 488.508 65.8437 488.508 61.5869C488.508 58.8612 488.293 54.7269 488.079 50.7456C487.895 47.6831 487.711 44.4981 487.65 41.895L487.252 29.4306H487.895C487.895 29.4306 492.213 29.3081 494.449 29.3081C496.684 29.3081 499.533 29.645 499.655 29.6756L500.359 29.7675L500.176 30.4412C500.176 30.4412 499.563 32.7075 499.563 35.0656C499.563 35.8925 499.533 37.3931 499.533 38.6794C501.983 35.0962 507.954 27.6544 514.263 28.6037C519.837 29.3694 522.073 36.75 522.869 40.67C524.614 36.26 529.116 27.0112 536.528 27.0112H537.109C544.306 27.5625 545.991 37.0256 547.369 44.6206L547.583 45.815C548.9 53.0731 548.502 70.4987 548.471 71.2337Z" fill="#1F8299"/>
<path d="M388.58 74.7254C388.58 74.7254 387.783 64.8029 387.783 60.3622C387.783 55.9216 388.396 32.5547 388.396 32.3404V31.8197L387.906 31.7279C387.906 31.7279 384.016 30.9929 382.363 30.656C380.678 30.2272 378.29 29.676 378.29 29.676L377.585 29.5229L377.31 33.596C375.533 31.6054 371.521 28.0835 365.029 28.0835H364.508C353.912 28.3897 345.674 37.6385 343.5 51.6954C342.305 59.2597 343.806 66.2422 347.695 71.3566C350.911 75.5829 355.596 78.2166 360.833 78.8291C361.507 78.921 362.15 78.9516 362.793 78.9516C370.603 78.9516 376.33 73.6229 378.596 71.1422L378.81 75.5829L379.331 75.6441C379.331 75.6441 382.24 75.9197 383.925 75.8279C385.976 75.736 387.998 75.3991 388.059 75.3685L388.61 75.2766V74.7254H388.58ZM354.525 50.9604C355.26 45.1722 358.291 38.6797 364.6 37.7916C366.346 37.5466 368.52 38.4347 370.572 40.2722C373.298 42.7529 376.176 47.4079 375.931 53.0122C375.87 55.7072 373.757 62.4447 369.684 66.2116C367.632 68.141 365.366 69.0291 362.885 68.9372C360.619 68.8147 358.781 67.896 357.373 66.2422C354.31 62.5366 353.912 55.7072 354.525 50.9604Z" fill="#1F8299"/>
<path d="M337.466 64.5574L337.282 65.078C337.16 65.4455 334.097 74.1124 326.441 77.4506C324.512 78.2774 322.46 78.7062 320.316 78.7062C317.56 78.7062 314.651 78.0324 311.588 76.6543C304.085 73.3162 299.767 65.3843 299.767 55.2474C299.767 54.6043 299.797 53.9612 299.828 53.318C300.441 42.2012 306.566 29.1549 317.131 25.7249C320.837 24.5305 324.206 24.7449 327.176 26.3987C333.393 29.798 335.598 38.0974 335.69 38.4343L335.812 38.863L335.445 39.108C335.445 39.108 333.516 40.333 332.413 41.3437C331.188 42.5074 328.003 45.5087 328.003 45.5087L327.299 46.1518L327.023 45.233C327.023 45.233 324.879 38.8937 320.745 38.5874C319.489 38.4955 318.081 39.0774 316.702 40.3024C313.64 43.0587 311.466 48.3262 311.312 53.3793C311.067 61.0049 313.854 65.7824 319.122 66.8237C323.562 67.7118 327.697 59.9637 327.758 59.9024L328.034 59.3512L328.554 59.6268C328.554 59.6268 331.801 61.2499 333.301 62.2299C334.679 63.1793 336.946 64.3124 336.976 64.3124L337.466 64.5574Z" fill="#1F8299"/>
<path d="M48.7429 61.3485C48.838 64.0725 47.5402 67.2741 44.9359 70.7971C41.0722 75.9883 35.8344 78.684 29.4683 78.9063C22.2758 79.1574 16.5548 77.6718 12.5175 74.3807C10.7195 72.9113 9.014 70.5807 7.5857 67.413C5.09998 62.0452 3.51943 51.0074 3.33132 45.6207C3.05557 37.7242 4.9451 31.2844 8.88496 26.5196C12.7711 21.9712 18.294 19.5413 25.3029 19.2966C29.3429 19.1555 32.8894 19.7977 35.6668 21.2329C38.1 22.4656 40.2497 24.3518 42.0164 26.6803C43.6247 28.8611 44.454 30.6708 44.5074 32.2011C44.5534 33.5172 43.8911 34.7354 42.6125 35.8526C41.3918 36.8758 40.0032 37.4759 38.5341 37.5272C37.0649 37.5785 35.8467 36.9162 34.7011 35.6998C33.68 34.5404 32.6589 33.3809 31.6357 32.1603C29.9451 30.2581 27.8931 29.4105 25.3221 29.5002C18.8948 29.7247 15.9155 34.793 16.2778 45.1686C16.4713 50.7083 18.0144 60.6749 20.363 63.8718C22.7116 67.0686 25.431 68.5978 28.5835 68.4877C31.7359 68.3776 34.6744 66.5283 37.493 62.9978C38.3748 61.9251 39.2207 60.7004 40.0994 59.5359C41.4613 58.1707 42.8161 57.4799 44.377 57.4254C45.5707 57.3837 46.5619 57.6862 47.416 58.4531C48.2691 59.1894 48.7318 60.1538 48.7735 61.3475L48.7429 61.3485Z" fill="#F65F2B" stroke="#F65F2B" stroke-width="1.225"/>
<path d="M92.5888 37.0833C88.5204 31.6092 82.8616 28.6843 75.7609 28.4363C69.456 28.2162 64.1443 30.2677 60.0094 34.5972C55.8101 39.0165 53.5468 45.0356 53.2882 52.4423C53.1097 57.5536 53.765 62.4794 55.287 67.1598C56.6118 71.3429 58.3107 74.4666 60.3531 76.5298C63.7891 79.9286 69.3312 81.8076 76.738 82.0662C82.5532 82.2693 87.6656 79.7818 91.8916 74.5974C95.8272 69.8319 97.9182 64.3584 98.1235 58.482C98.4313 49.6673 96.5685 42.4623 92.5592 37.0516L92.5888 37.0833ZM77.3263 71.3615C73.5617 71.23 70.6748 69.6583 68.4535 66.5777C66.0517 63.3988 64.9454 59.1007 65.1357 53.6528C65.3067 48.7557 66.4207 44.9335 68.3141 42.4869C70.2108 39.9484 72.7917 38.8741 76.0666 38.9884C78.5763 39.0761 81.0294 40.7858 83.4628 43.9352C85.3706 47.2194 86.2819 50.9591 86.1376 55.091C85.7539 66.0786 82.7732 71.5823 77.3252 71.3921L77.3263 71.3615Z" fill="#F65F2B" stroke="#F65F2B" stroke-width="1.225"/>
<path d="M140.616 35.3949C140.887 40.5635 138.163 41.8409 135.778 41.9659C134.157 42.0509 132.747 41.4807 131.493 40.3811C131.036 39.853 130.075 38.4927 128.552 36.3339C126.891 33.9062 125.143 32.7404 123.461 32.8286C122.207 32.8943 121.319 33.4929 120.77 34.7177C118.806 38.8073 117.893 42.4432 118.05 45.4403C118.09 46.2049 118.394 49.0717 118.83 53.8942C119.301 58.7763 119.657 63.235 119.871 67.3025C120.193 73.4497 118.458 76.638 114.85 76.8271C111.791 76.9874 109.437 75.3627 107.884 72.0707L107.87 71.7955L107.182 65.1154C105.604 48.454 104.618 37.8335 104.402 33.7048C104.028 26.579 105.795 22.837 109.495 22.6431C112.278 22.4972 114.116 24.2102 114.954 27.9077C117.818 24.0469 121.086 22.0356 124.573 21.8529C129.038 21.6189 132.807 22.74 135.822 25.2501C138.744 27.7649 140.395 31.1745 140.619 35.4561L140.616 35.3949Z" fill="#F65F2B" stroke="#F65F2B" stroke-width="1.225"/>
<path d="M186.094 77.975C186.081 77.0543 186.02 75.303 185.945 72.6311C185.939 68.6441 186.03 64.5701 186.243 60.5026L186.79 50.0737C187.357 39.2473 187.192 33.0439 186.468 31.0433C185.903 29.5417 184.411 28.7582 182.117 28.6379C180.16 28.5354 177.737 29.1138 176.949 32.4458C174.402 30.135 171.674 28.9493 168.799 28.7987C163.845 28.539 159.932 29.4686 157.246 31.5666C149.523 37.3259 145.386 45.4505 144.851 55.6652C144.458 63.1581 146.029 69.4658 149.545 74.3422C153.054 79.3714 157.824 81.9828 163.696 82.2905C167.335 82.4812 171.264 80.6631 175.541 76.8699C176.289 81.3251 178.129 83.6603 181.065 83.8141C183.237 83.9279 185.949 83.0887 186.183 78.6236L186.22 77.9202L186.159 77.917L186.094 77.975ZM165.031 72.6084C162.462 72.4737 160.414 71.1704 158.864 68.5744C157.318 65.8867 156.617 62.2926 156.853 57.7969C157.164 51.8638 158.545 47.1522 160.811 43.7135C162.944 40.452 165.535 38.9931 168.686 39.1582C170.154 39.2351 172.299 39.8382 175.031 40.9627C175.091 43.9099 175.057 46.9135 174.891 50.0635C174.093 65.2939 170.75 72.9081 165.031 72.6084Z" fill="#F65F2B" stroke="#F65F2B" stroke-width="1.225"/>
<path d="M223.742 78.0375C221.799 78.998 219.029 79.9712 215.726 80.1443C214.472 80.21 213.12 80.1582 211.697 79.9261C210.182 79.6988 207.367 79.233 204.688 77.2574C204.657 77.259 204.625 77.2301 204.593 77.2011C204.115 76.8581 203.634 76.454 203.149 75.9887C202.309 75.1741 201.619 74.2902 201.112 73.3968C201.08 73.3678 201.048 73.3388 201.077 73.3066C200.84 72.8897 200.636 72.5017 200.399 72.0848C200.192 71.6357 199.982 71.156 199.867 70.702C199.524 68.8493 199.248 67.0851 199.008 65.4416L199.005 65.3804C197.88 57.9566 197.509 52.64 197.407 48.9346C197.193 41.3404 197.136 38.4914 197.136 38.4914C197.039 34.2951 196.973 31.2932 196.893 29.764C196.791 27.8067 196.548 24.9367 196.232 21.2426C195.819 17.4615 195.609 14.6205 195.51 12.7243C195.373 10.1248 195.968 8.00828 197.137 6.32166C198.364 4.57067 200.064 3.65357 202.235 3.53977C204.529 3.41957 206.19 4.09919 207.031 5.52711C207.569 6.41896 207.924 7.93368 208.099 10.1019L208.136 10.8053C208.136 10.8053 208.169 12.6129 208.226 17.7926C208.265 22.636 208.472 27.7465 208.746 32.9762C209.252 42.6405 209.735 44.2405 210.299 54.4231C210.493 58.1236 210.592 61.1851 210.643 63.3292L210.674 63.9102C210.632 64.2804 210.559 64.6522 210.517 65.0224C210.554 65.1432 210.622 65.2623 210.66 65.4136C210.634 66.0897 210.75 67.1263 211.302 67.7107C211.753 68.1164 212.435 68.2646 213.549 68.4516C215.59 68.774 217.428 68.1563 218.594 67.5739C221.494 66.1645 224.992 67.3612 226.4 70.2315C227.809 73.1323 226.611 76.5992 223.742 78.0375Z" fill="#F65F2B" stroke="#F65F2B" stroke-width="1.225"/>
</svg>
